Coordinates
version=1
nRows=12
nColumns=42
inDegrees=yes

Units are S.I. units (second, meters, Newtons, ...)
If the header above contains a line with 'inDegrees', this indicates whether rotational values are in degrees (yes) or radians (no).

endheader
time	pelvis_tilt	pelvis_list	pelvis_rotation	pelvis_tx	pelvis_ty	pelvis_tz	hip_flexion_r	hip_adduction_r	hip_rotation_r	knee_angle_r	knee_adduction_r	knee_angle_r_beta	ankle_angle_r	subtalar_angle_r	mtp_angle_r	hip_flexion_l	hip_adduction_l	hip_rotation_l	knee_angle_l	knee_adduction_l	knee_angle_l_beta	ankle_angle_l	subtalar_angle_l	mtp_angle_l	lumbar_extension	lumbar_bending	lumbar_rotation	arm_flex_r	arm_add_r	arm_rot_r	elbow_flex_r	pro_sup_r	wrist_flex_r	wrist_dev_r	arm_flex_l	arm_add_l	arm_rot_l	elbow_flex_l	pro_sup_l	wrist_flex_l	wrist_dev_l
      1.75000000	     10.27553770	      1.92054565	     -1.48400290	     -0.46293781	      0.90968839	      0.19799704	     19.26611666	     -3.52051555	     -1.38789621	     57.05905486	      1.46907412	      0.99586838	      7.11986452	     -6.81186744	     -7.55824979	     -5.49473246	      7.77651828	    -11.56346558	     21.14208831	     -2.49908258	      0.36899905	     21.88283354	     17.54000249	     -7.55824979	    -20.97510312	      0.30289472	     -5.76167201	      0.08491899	     -9.97806836	    -17.52346822	     30.07003596	     90.00000001	      0.00000000	      0.00000000	     -4.68989383	     -9.04239313	    -21.44136113	     39.98609338	     90.00000001	      0.00000000	      0.00000000
      1.76000000	     10.19304886	      1.81474387	     -1.20506418	     -0.45559086	      0.90942777	      0.19791750	     19.76547195	     -3.39144174	     -1.72172735	     54.13842041	      1.41800343	      0.94489369	      7.92108476	     -4.77659703	     -7.55484948	     -6.08399883	      7.67512371	    -11.41577526	     20.87995092	     -2.59012534	      0.36442389	     22.22908227	     17.87228148	     -7.55484948	    -21.01290619	      0.51509685	     -6.08128871	     -0.37802202	     -9.95201643	    -17.71886650	     30.42526667	     90.00000001	      0.00000000	      0.00000000	     -4.45862702	     -9.25106811	    -21.04312836	     40.00620140	     90.00000001	      0.00000000	      0.00000000
      1.77000000	     10.02412749	      1.73761917	     -0.96346567	     -0.44829439	      0.90887682	      0.19772594	     20.29761520	     -3.38324129	     -1.58018119	     51.12176719	      1.86909687	      0.89224316	      8.45255905	     -3.41838529	     -7.55316482	     -6.52081193	      7.62175585	    -11.26033805	     20.73293961	     -2.69943535	      0.36185806	     22.66754763	     18.02954836	     -7.55316482	    -20.95178715	      0.72660035	     -6.35146538	     -0.84025426	     -9.96606275	    -17.85888240	     30.73062142	     90.00000001	      0.00000000	      0.00000000	     -4.21296737	     -9.33828428	    -20.74275687	     39.99053558	     90.00000001	      0.00000000	      0.00000000
      1.78000000	      9.51517933	      2.04860934	     -0.84602783	     -0.44102892	      0.90732729	      0.19789051	     21.54667046	     -3.73035728	     -1.65314156	     48.70705514	      1.94532304	      0.85009848	      8.55707139	     -2.97017895	     -7.55248111	     -6.49750992	      7.92604035	    -11.35387010	     20.69404883	     -2.70820939	      0.36117929	     22.74420327	     17.97676565	     -7.55248111	    -20.46051721	      0.40161224	     -6.57001746	     -1.36432056	     -9.86764234	    -17.88610881	     30.86971358	     90.00000001	      0.00000000	      0.00000000	     -4.08244943	     -9.48801241	    -20.65218759	     40.20837514	     90.00000001	      0.00000000	      0.00000000
      1.79000000	      9.85034437	      1.62051948	     -0.44456547	     -0.43303532	      0.90764527	      0.19772847	     20.92639742	     -3.33025427	     -2.59034414	     44.91253034	      1.73163057	      0.78387153	      9.99534256	      1.25759361	     -7.54838993	     -7.73428488	      7.44299965	    -11.32380087	     20.19080608	     -2.92059163	      0.35239604	     23.44173815	     19.36495477	     -7.54838993	    -20.91693496	      1.04660185	     -6.81237629	     -1.80339863	     -9.86757152	    -18.46826531	     31.22609811	     90.00000001	      0.00000000	      0.00000000	     -3.78278218	     -9.59443527	    -20.10699160	     40.03643575	     90.00000001	      0.00000000	      0.00000000
      1.80000000	      9.37125678	      1.86667313	     -0.31807040	     -0.42558358	      0.90595817	      0.19799565	     21.93388871	     -3.62393288	     -2.54271446	     42.40216842	      1.99922674	      0.74005745	     10.14379972	      1.72180138	     -7.54769768	     -7.77314215	      7.69888870	    -11.29691526	     20.14742195	     -2.99615423	      0.35163885	     23.61711244	     19.33042374	     -7.54769768	    -20.44333434	      0.79187044	     -6.98774440	     -2.34034181	     -9.77760715	    -18.51613513	     31.34633306	     90.00000001	      0.00000000	      0.00000000	     -3.66398889	     -9.71242270	    -20.03197982	     40.15421593	     90.00000001	      0.00000000	      0.00000000
      1.81000000	      9.52927915	      1.60868593	     -0.06763314	     -0.41793641	      0.90568484	      0.19822260	     21.54106291	     -3.52490940	     -2.40390062	     38.95284031	      2.78196411	      0.67985532	     10.72620386	      3.35104512	     -7.54653279	     -8.69444034	      7.25437344	    -11.15337035	     19.88471745	     -2.83962784	      0.34705379	     24.25727440	     19.74742399	     -7.54653279	    -20.74958742	      1.17385187	     -7.04806098	     -2.72104163	     -9.75959377	    -18.81778325	     31.50661767	     90.00000001	      0.00000000	      0.00000000	     -3.21185038	     -9.74844247	    -19.83516982	     39.90060283	     90.00000001	      0.00000000	      0.00000000
      1.82000000	      9.19838601	      1.69047558	      0.10105874	     -0.41034736	      0.90418825	      0.19859825	     22.11132915	     -3.64589166	     -2.73261931	     36.36840691	      2.89736880	      0.63474844	     10.94471418	      4.28350321	     -7.54572285	     -8.94546742	      7.33639959	    -10.97460830	     19.76473688	     -2.97921449	      0.34495973	     24.51066365	     20.00572378	     -7.54572285	    -20.45301975	      1.10535423	     -7.19579254	     -3.15479895	     -9.64693030	    -19.00250260	     31.59554968	     90.00000001	      0.00000000	      0.00000000	     -3.04753783	     -9.81081158	    -19.75645175	     39.91707409	     90.00000001	      0.00000000	      0.00000000
      1.83000000	      9.27963066	      1.57161001	      0.37565688	     -0.40240274	      0.90350101	      0.19884211	     21.82515351	     -3.77036605	     -3.31341617	     33.48312839	      3.35979099	      0.58439083	     11.30504166	      5.85722302	     -7.54477445	     -9.72115485	      7.01361876	    -10.80325616	     19.63488750	     -2.81223445	      0.34269344	     25.06250146	     20.46937084	     -7.54477445	    -20.59530108	      1.32333432	     -7.27720150	     -3.54343967	     -9.57597432	    -19.38712683	     31.55431989	     90.00000001	      0.00000000	      0.00000000	     -2.68901303	     -9.83325429	    -19.69377342	     39.70886690	     90.00000001	      0.00000000	      0.00000000
      1.84000000	      9.50131538	      1.43689622	      0.64328603	     -0.39404618	      0.90284873	      0.19933975	     21.53224770	     -3.82257252	     -5.33816666	     31.22742877	      3.00716607	      0.54502145	     11.95419174	      9.08350573	     -7.54115919	    -10.69486853	      6.54041239	    -10.96299984	     19.48337980	     -2.55131797	      0.34004913	     25.48186175	     21.51476566	     -7.54115919	    -20.85083551	      1.51989024	     -7.32832688	     -3.84591369	     -9.34087826	    -20.31998635	     31.43880909	     90.00000001	      0.00000000	      0.00000000	     -2.40952937	     -9.81862981	    -19.74906060	     39.62292304	     90.00000001	      0.00000000	      0.00000000
      1.85000000	      9.18942587	      1.66003862	      0.68631467	     -0.38615235	      0.90098990	      0.20004878	     22.22422927	     -4.28281432	     -6.02314870	     29.96830848	      3.41772823	      0.52304565	     12.01977823	      9.12843037	     -7.54069170	    -10.89484601	      6.64030292	    -10.99530891	     19.58218109	     -2.43836850	      0.34177353	     25.61909032	     21.40082203	     -7.54069170	    -20.54187911	      1.23071232	     -7.23114542	     -4.32666113	     -9.23641790	    -20.34550400	     31.32547553	     90.00000001	      0.00000000	      0.00000000	     -2.21387181	     -9.84107303	    -19.72387916	     39.72491590	     90.00000001	      0.00000000	      0.00000000
      1.86000000	      9.37245259	      1.46789778	      1.09656147	     -0.37810116	      0.90037072	      0.20010018	     21.50448147	     -4.48360056	     -6.80076642	     27.63882847	      4.25036551	      0.48238856	     12.04034599	      9.99142464	     -7.54007212	    -11.72718241	      6.36788066	    -10.40644186	     19.51231276	     -2.56798140	      0.34055410	     26.38150760	     21.73881244	     -7.54007212	    -20.80193127	      1.60126672	     -7.46029395	     -4.47989238	     -9.15455783	    -20.70266518	     31.02969481	     90.00000001	      0.00000000	      0.00000000	     -1.82215245	     -9.78428634	    -19.78058946	     39.27231733	     90.00000001	      0.00000000	      0.00000000
